<?xml version="1.0" encoding="utf-8"?>
<!-- Generator: Adobe Illustrator 21.0.0, SVG Export Plug-In . SVG Version: 6.00 Build 0)  -->
<!DOCTYPE svg PUBLIC "-//W3C//DTD SVG 1.1//EN" "http://www.w3.org/Graphics/SVG/1.1/DTD/svg11.dtd">
<svg version="1.1" id="图层_1" xmlns="http://www.w3.org/2000/svg" xmlns:xlink="http://www.w3.org/1999/xlink" x="0px" y="0px"
	 viewBox="0 0 120 30" style="enable-background:new 0 0 120 30;" xml:space="preserve">
<style type="text/css">
	.st0{fill-rule:evenodd;clip-rule:evenodd;fill:url(#SVGID_1_);}
	.st1{fill:url(#Path_1_);}
	.st2{fill:url(#Path_4_);fill-opacity:0.3;}
	.st3{fill:url(#Path_5_);}
	.st4{fill:url(#Path_6_);fill-opacity:0.3;}
	.st5{fill:url(#Combined-Shape_1_);}
	.st6{fill:url(#path-11_1_);}
	.st7{fill:url(#path-11_4_);fill-opacity:0.8;}
	.st8{fill:url(#Path_7_);}
	.st9{fill:url(#path-16_1_);}
	.st10{fill:url(#path-16_4_);fill-opacity:0.5;}
	.st11{fill:url(#Combined-Shape_2_);}
	.st12{fill:url(#path-20_1_);}
	.st13{fill:url(#path-20_2_);}
	.st14{fill:url(#Combined-Shape_3_);}
	.st15{fill:url(#path-24_1_);}
	.st16{fill:url(#path-24_2_);}
	.st17{fill:url(#Path_8_);}
</style>
<g>
	<g>
		<g>
			
				<radialGradient id="SVGID_1_" cx="42.5053" cy="8.6102" r="68.5815" gradientTransform="matrix(1 0 0 1 -7.1141 -1.4055)" gradientUnits="userSpaceOnUse">
				<stop  offset="0" style="stop-color:#1EFDFA"/>
				<stop  offset="1" style="stop-color:#33CCFF"/>
			</radialGradient>
			<path class="st0" d="M35.1,8.9h10.6v1.4H35.1v7.1H39v-5.1h6.7v5.1h3.9v-5.1h6.7v5.1h3.9v-7.1H49.6V8.9h10.6V6.8H35.1V8.9z
				 M117.5,25.9l-5-3.8l5.4-4.2v-5.1h-6.2v-2.3h5.3l0.9-2.3h-6.2V6.3h-4.1v1.8h-6.2v2.3h6.2v2.3h-6.2v2.3H114v1.2l-4.5,3.5l-2.2-1.7
				h-6l5.2,4l-4.9,3.8h-2.1v2.3h5.1l4.9-3.8l5,3.8h4.6l0.9-2.3H117.5z M85.5,25.9h-4.3v-3.2h6.7v-6.9H64.6v6.9h4.3l-6.3,5.5H68
				l7.4-6.4v-1.4h-6.9v-2.3h15.4v2.3h-6.7v7.8h11.5l1.6-4.1h-4.1L85.5,25.9z M88.3,7.7h-9.7V6.3h-4.8v1.4h-9.7V10h23.2L88.3,7.7z
				 M88.7,12.1h-3.5l0.5-1.6h-4.8v1.6h-9.7v-1.6h-4.8l0.5,1.6h-3.3v2.3h25.1V12.1z M100.9,12.8l-2.1,1.7v-4h2.1V8.2h-2.1V6.3h-4.1
				v1.8h-2.1v2.3h2.1v7.3l-2.1,1.7v3.2l2.1-1.7v4.9h-2.1v2.3h6.2V17.7l2.1-1.7V12.8z M51,13.7v3.7h3.9v-3.7H51z M40.4,13.7v3.7h3.9
				v-3.7H40.4z M35.1,28.2h25.1v-9.4H35.1V28.2z M49.6,20.8h6.7v1.6h-6.7V20.8z M49.6,24.5h6.7v1.6h-6.7V24.5z M39,20.8h6.7v1.6
				h-4.1l-0.9,2.1h5.1v1.6H39V20.8z"/>
		</g>
	</g>
	<g>
		<g id="Group_2_" transform="translate(1.000000, 2.000000)">
			<path id="Combined-Shape_28_" d="M7.5,17.5L-1,3.2h14.6H16L7.5,17.5z M8.7,19.5l9.7-16.3h9.8L13.6,27.7L8.7,19.5z"/>
			
				<radialGradient id="Path_1_" cx="645.691" cy="440.3232" r="0.8478" gradientTransform="matrix(3.4953 16.7923 16.7923 -3.4953 -9646.3721 -9300.3027)" gradientUnits="userSpaceOnUse">
				<stop  offset="0" style="stop-color:#007DA3"/>
				<stop  offset="1" style="stop-color:#004E72"/>
			</radialGradient>
			<polygon id="Path_25_" class="st1" points="7.5,17.5 -1,3.2 16,3.2 			"/>
			
				<linearGradient id="Path_4_" gradientUnits="userSpaceOnUse" x1="606.3931" y1="494.0236" x2="605.6431" y2="493.222" gradientTransform="matrix(10.1938 0 0 -17.1522 -6166.6396 8476.8008)">
				<stop  offset="0" style="stop-color:#008EB0"/>
				<stop  offset="1" style="stop-color:#005175"/>
			</linearGradient>
			<polygon id="Path_23_" class="st2" points="7.5,17.5 13.6,3.2 16,3.2 			"/>
			
				<linearGradient id="Path_5_" gradientUnits="userSpaceOnUse" x1="643.618" y1="485.9914" x2="643.2015" y2="485.4389" gradientTransform="matrix(23.3625 0 0 -29.4458 -15014.9561 14316.5928)">
				<stop  offset="0" style="stop-color:#004E72"/>
				<stop  offset="1" style="stop-color:#007DA3"/>
			</linearGradient>
			<polygon id="Path_22_" class="st3" points="8.7,19.5 18.4,3.2 28.2,3.2 13.6,27.7 			"/>
			
				<linearGradient id="Path_6_" gradientUnits="userSpaceOnUse" x1="626.4448" y1="491.619" x2="625.7901" y2="490.8088" gradientTransform="matrix(14.6115 0 0 -19.5815 -9134.0811 9630.5791)">
				<stop  offset="0" style="stop-color:#00678C"/>
				<stop  offset="1" style="stop-color:#007DA3"/>
			</linearGradient>
			<polygon id="Path_20_" class="st4" points="8.7,19.5 18.4,3.2 20.9,3.2 			"/>
			
				<radialGradient id="Combined-Shape_1_" cx="734.5889" cy="514.5271" r="1.6223" gradientTransform="matrix(-5.2079 -8.763 -8.763 5.2079 8341.9814 3775.1062)" gradientUnits="userSpaceOnUse">
				<stop  offset="0" style="stop-color:#00A8E1"/>
				<stop  offset="1" style="stop-color:#1EFFFA"/>
			</radialGradient>
			<polygon id="Combined-Shape_27_" class="st5" points="7.5,17.5 -1,3.2 4.3,3.2 			"/>
			<g id="Combined-Shape_26_">
				<g>
					
						<linearGradient id="path-11_1_" gradientUnits="userSpaceOnUse" x1="508.7072" y1="494.0391" x2="509.5222" y2="493.2241" gradientTransform="matrix(4.1344 0 0 -17.1522 -2099.0603 8476.8008)">
						<stop  offset="0" style="stop-color:#53FFFB"/>
						<stop  offset="1" style="stop-color:#02ADE2"/>
					</linearGradient>
					<polygon id="path-11_8_" class="st6" points="7.5,17.5 4.1,3.2 4.3,3.2 					"/>
				</g>
				<g>
					
						<radialGradient id="path-11_4_" cx="553.3194" cy="338.0198" r="1.5956" gradientTransform="matrix(1.0792 3.991 3.991 -1.0792 -1942.108 -1840.2845)" gradientUnits="userSpaceOnUse">
						<stop  offset="0" style="stop-color:#FFFFFF"/>
						<stop  offset="1" style="stop-color:#FFFFFF;stop-opacity:0"/>
					</radialGradient>
					<polygon id="path-11_3_" class="st7" points="7.5,17.5 4.1,3.2 4.3,3.2 					"/>
				</g>
			</g>
			
				<radialGradient id="Path_7_" cx="685.8651" cy="444.8333" r="1.0837" gradientTransform="matrix(-17.29 15.1697 15.1697 17.29 5138.7407 -18092.2617)" gradientUnits="userSpaceOnUse">
				<stop  offset="0" style="stop-color:#00A8E1"/>
				<stop  offset="1" style="stop-color:#1EFFFA"/>
			</radialGradient>
			<polygon id="Path_19_" class="st8" points="9,20 28.2,3.2 13.6,27.7 			"/>
			<g id="Path_16_">
				<g>
					
						<linearGradient id="path-16_1_" gradientUnits="userSpaceOnUse" x1="642.6047" y1="490.1349" x2="643.4377" y2="490.9679" gradientTransform="matrix(23.0014 0 0 -20.4591 -14771.8193 10047.957)">
						<stop  offset="0" style="stop-color:#12FFFB"/>
						<stop  offset="1" style="stop-color:#006D92"/>
					</linearGradient>
					<polygon id="path-16_8_" class="st9" points="9,20 28.2,3.2 9.2,20.3 					"/>
				</g>
				<g>
					
						<radialGradient id="path-16_4_" cx="636.1248" cy="466.1209" r="0.5976" gradientTransform="matrix(16.0313 12.7111 12.7111 -16.0313 -16113.7979 -593.0569)" gradientUnits="userSpaceOnUse">
						<stop  offset="0" style="stop-color:#FFFFFF"/>
						<stop  offset="1" style="stop-color:#FFFFFF;stop-opacity:0"/>
					</radialGradient>
					<polygon id="path-16_3_" class="st10" points="9,20 28.2,3.2 9.2,20.3 					"/>
				</g>
			</g>
			
				<linearGradient id="Combined-Shape_2_" gradientUnits="userSpaceOnUse" x1="634.8256" y1="485.7617" x2="633.9934" y2="484.9295" gradientTransform="matrix(17.7625 0 0 -30.2393 -11255.3809 14688.71)">
				<stop  offset="0" style="stop-color:#00D7D3;stop-opacity:0.4024"/>
				<stop  offset="1" style="stop-color:#1EFFFA"/>
			</linearGradient>
			<path id="Combined-Shape_25_" class="st11" d="M5.9,24.7C5.9,24.7,5.9,24.7,5.9,24.7l2.8-5.2l11.9-20h0.1L9,20L5.9,24.7
				C6,24.7,6,24.7,5.9,24.7z"/>
			<g id="Combined-Shape_24_">
				<g>
					
						<linearGradient id="path-20_1_" gradientUnits="userSpaceOnUse" x1="633.853" y1="485.9815" x2="633.02" y2="485.1485" gradientTransform="matrix(17.325 0 0 -29.6222 -10961.0938 14395.8818)">
						<stop  offset="0" style="stop-color:#02D7D3"/>
						<stop  offset="1" style="stop-color:#FFFFFF"/>
					</linearGradient>
					<polygon id="path-20_5_" class="st12" points="5.9,24.7 8.8,19.7 20.4,0 8.9,19.9 					"/>
				</g>
				<g>
					
						<radialGradient id="path-20_2_" cx="653.1864" cy="435.1923" r="0.1991" gradientTransform="matrix(0 17.325 17.325 0 -7530.7651 -11296.9365)" gradientUnits="userSpaceOnUse">
						<stop  offset="0" style="stop-color:#FFFFFF;stop-opacity:0.5"/>
						<stop  offset="1" style="stop-color:#FFFFFF;stop-opacity:0"/>
					</radialGradient>
					<polygon id="path-20_4_" class="st13" points="5.9,24.7 8.8,19.7 20.4,0 8.9,19.9 					"/>
				</g>
			</g>
			
				<linearGradient id="Combined-Shape_3_" gradientUnits="userSpaceOnUse" x1="628.9178" y1="486.3845" x2="629.7507" y2="487.2175" gradientTransform="matrix(15.6664 0 0 -26.6247 -9847.4102 12970.541)">
				<stop  offset="0" style="stop-color:#00D7D3;stop-opacity:0.4024"/>
				<stop  offset="1" style="stop-color:#1EFFFA"/>
			</linearGradient>
			<path id="Combined-Shape_23_" class="st14" d="M5.5,20.8l10-17.6l2.8-4.4c0.1-0.1,0.2-0.2,0.2-0.2c0.1,0,0.1,0,0.1,0.1L16,3.2
				L5.5,20.8L5.5,20.8z"/>
			<g id="Combined-Shape_18_">
				<g>
					
						<linearGradient id="path-24_1_" gradientUnits="userSpaceOnUse" x1="627.3839" y1="486.7768" x2="628.2169" y2="487.6098" gradientTransform="matrix(15.1375 0 0 -25.8312 -9491.2607 12594.2949)">
						<stop  offset="0" style="stop-color:#02D7D3"/>
						<stop  offset="1" style="stop-color:#FFFFFF"/>
					</linearGradient>
					<polygon id="path-24_6_" class="st15" points="5.8,20.3 15.6,3.2 18.3,-1.1 18.4,-1.2 15.9,3.2 					"/>
				</g>
				<g>
					
						<radialGradient id="path-24_2_" cx="647.4633" cy="432.0516" r="0.305" gradientTransform="matrix(1.2997 15.0816 15.0816 -1.2997 -7341.9722 -9199.8594)" gradientUnits="userSpaceOnUse">
						<stop  offset="0" style="stop-color:#FFFFFF;stop-opacity:0.5"/>
						<stop  offset="1" style="stop-color:#FFFFFF;stop-opacity:0"/>
					</radialGradient>
					<polygon id="path-24_3_" class="st16" points="5.8,20.3 15.6,3.2 18.3,-1.1 18.4,-1.2 15.9,3.2 					"/>
				</g>
			</g>
		</g>
		
			<radialGradient id="Path_8_" cx="352.0776" cy="640.0502" r="2.1662" gradientTransform="matrix(2.2443 0 0 -2.2443 -785.1415 1441.8829)" gradientUnits="userSpaceOnUse">
			<stop  offset="0" style="stop-color:#FFFFFF"/>
			<stop  offset="1" style="stop-color:#02D7D3;stop-opacity:0.2021"/>
		</radialGradient>
		<polygon id="Path_9_" class="st17" points="0.2,5.4 0,5.2 16.5,5.2 16.4,5.4 		"/>
	</g>
</g>
</svg>
