<?xml version="1.0" encoding="utf-8"?>
<!-- Generator: Adobe Illustrator 23.0.0, SVG Export Plug-In . SVG Version: 6.00 Build 0)  -->
<svg version="1.1" id="Layer_1" xmlns="http://www.w3.org/2000/svg" xmlns:xlink="http://www.w3.org/1999/xlink" x="0px" y="0px"
	 viewBox="0 0 212.6 52.2" style="enable-background:new 0 0 212.6 52.2;" xml:space="preserve">
<style type="text/css">
	.st0{fill:#FFFFFF;}
</style>
<g>
	<path class="st0" d="M67.2,52.2V29H50.3v23.2h-9.7V20.4c0-0.1,0.1,0,0.2,0h36.1v31.9H67.2z"/>
	<path class="st0" d="M124.4,33.2c0.2,0.3,0.4,0.8,0.5,1.2c0.2,0.7,0.3,1.7,0.2,2.6c-0.1,0-2.3-0.9-2.9-1.6
		c-0.1-0.1-0.1-0.3-0.1-0.4c0-0.3,0.1-0.7,0.1-1c0.1-0.5,0.1-1.3,0.2-1.8C123.1,32.1,124.2,32.7,124.4,33.2 M145.5,11.9l-39.7,16.5
		v-8h-9.7v31.9h9.7v-7.1c0-5.7,7.6-8.7,7.1-7.1c-0.4,1.6,0.1,4,1.6,5.2c0.4,0.3,2.4,1.7,3,2.1c1.2,0.8,2.2,1.9,3,3.1
		c0.3,0.5,1.8,3.1,2.2,3.5c0.1,0.2,0.3,0.3,0.6,0.3c3.3,0,10.1,0,10.1,0s-2.2-5.9-3-8.3c-1.4-3.8-2.4-7.6-2.7-11.7
		c0-0.7-0.4-1.1-1-1.4c-0.4-0.2-2.8-1-2.8-2.2L145.5,11.9z"/>
	<rect x="81.4" y="20.4" class="st0" width="10.1" height="31.9"/>
	<polygon class="st0" points="86.5,0 84.5,6 78.2,6 83.3,9.7 81.3,15.7 86.5,12 91.6,15.7 89.6,9.7 94.7,6 88.4,6 	"/>
	<path class="st0" d="M145.2,29.2h16.8l0,4.4h-16.8V29.2z M164.4,42.5h7.2V20.4h-36.1v31.9h9.7v-9.8h3.2l13.6,9.8h9.7v-4.4
		L164.4,42.5z"/>
	<polygon class="st0" points="26.7,20.4 26.6,43.4 9.7,43.4 9.7,20.4 0,20.4 0,52.2 36.2,52.2 36.2,20.4 	"/>
	<path class="st0" d="M202.9,52.2l0-23.2H186v23.2h-9.7V20.4c0-0.1,0.1,0,0.2,0h36.1v31.9H202.9z"/>
</g>
</svg>
